<?xml version="1.0"?>
<svg xmlns="http://www.w3.org/2000/svg" xmlns:xlink="http://www.w3.org/1999/xlink" version="1.1" id="Capa_1" x="0px" y="0px" viewBox="0 0 512 512" style="enable-background:new 0 0 512 512;" xml:space="preserve" width="512px" height="512px" class=""><g><g>
	<g>
		<path d="M351.333,241V81H160.667v160H0v190h512V241H351.333z M160.667,401H30V271h130.667V401z M321.333,401H190.667V271h130.666    V401z M321.333,241H190.667V111h130.666V241z M482,401H351.333V271H482V401z" data-original="#000000" class="active-path" data-old_color="#ffffff" fill="#ffffff"/>
	</g>
</g><g>
	<g>
		<polygon points="121.395,315.697 100.182,294.484 58.666,336 100.182,377.516 121.395,356.303 101.092,336   " data-original="#000000" class="active-path" data-old_color="#ffffff" fill="#ffffff"/>
	</g>
</g><g>
	<g>
		<polygon points="276.303,306.727 256,327.029 235.697,306.727 214.484,327.94 256,369.456 297.516,327.94   " data-original="#000000" class="active-path" data-old_color="#ffffff" fill="#ffffff"/>
	</g>
</g><g>
	<g>
		<polygon points="256,142.544 214.484,184.06 235.697,205.273 256,184.971 276.303,205.273 297.516,184.06   " data-original="#000000" class="active-path" data-old_color="#ffffff" fill="#ffffff"/>
	</g>
</g><g>
	<g>
		<polygon points="411.818,294.484 390.605,315.697 410.908,336 390.605,356.303 411.818,377.516 453.334,336   " data-original="#000000" class="active-path" data-old_color="#ffffff" fill="#ffffff"/>
	</g>
</g></g> </svg>
